<svg xmlns="http://www.w3.org/2000/svg" xmlns:xlink="http://www.w3.org/1999/xlink" width="500" zoomAndPan="magnify" viewBox="0 0 375 374.999991" height="500" preserveAspectRatio="xMidYMid meet" version="1.0"><defs><g/><clipPath id="f2c18563ee"><path d="M 30.847656 30.847656 L 344.152344 30.847656 L 344.152344 344.152344 L 30.847656 344.152344 Z M 30.847656 30.847656 " clip-rule="nonzero"/></clipPath><clipPath id="ae7c9714dc"><path d="M 187.5 30.847656 C 100.984375 30.847656 30.847656 100.984375 30.847656 187.5 C 30.847656 274.015625 100.984375 344.152344 187.5 344.152344 C 274.015625 344.152344 344.152344 274.015625 344.152344 187.5 C 344.152344 100.984375 274.015625 30.847656 187.5 30.847656 Z M 187.5 30.847656 " clip-rule="nonzero"/></clipPath><clipPath id="5b22677e23"><path d="M 30.847656 30.847656 L 344.148438 30.847656 L 344.148438 344.148438 L 30.847656 344.148438 Z M 30.847656 30.847656 " clip-rule="nonzero"/></clipPath><clipPath id="6d3c45fdfc"><path d="M 187.496094 30.847656 C 100.980469 30.847656 30.847656 100.980469 30.847656 187.496094 C 30.847656 274.011719 100.980469 344.148438 187.496094 344.148438 C 274.011719 344.148438 344.148438 274.011719 344.148438 187.496094 C 344.148438 100.980469 274.011719 30.847656 187.496094 30.847656 Z M 187.496094 30.847656 " clip-rule="nonzero"/></clipPath></defs><rect x="-37.5" width="450" fill="#ffffff" y="-37.499999" height="449.999989" fill-opacity="1"/><rect x="-37.5" width="450" fill="#ffffff" y="-37.499999" height="449.999989" fill-opacity="1"/><g clip-path="url(#f2c18563ee)"><g clip-path="url(#ae7c9714dc)"><path fill="#ffffff" d="M 30.847656 30.847656 L 344.152344 30.847656 L 344.152344 344.152344 L 30.847656 344.152344 Z M 30.847656 30.847656 " fill-opacity="1" fill-rule="nonzero"/></g></g><g clip-path="url(#5b22677e23)"><g clip-path="url(#6d3c45fdfc)"><path stroke-linecap="butt" transform="matrix(0.75, 0, 0, 0.75, 30.846777, 30.846773)" fill="none" stroke-linejoin="miter" d="M 208.865769 0.00117775 C 93.511595 0.00117775 0.00117175 93.511601 0.00117175 208.865775 C 0.00117175 324.219949 93.511595 417.73558 208.865769 417.73558 C 324.219943 417.73558 417.735574 324.219949 417.735574 208.865775 C 417.735574 93.511601 324.219943 0.00117775 208.865769 0.00117775 Z M 208.865769 0.00117775 " stroke="#ff3131" stroke-width="36" stroke-opacity="1" stroke-miterlimit="4"/></g></g><g fill="#ff3131" fill-opacity="1"><g transform="translate(152.895454, 270.310594)"><g><path d="M 48.09375 -52.296875 L 21.125 -52.296875 L 18.96875 -157.625 L 50.25 -157.625 Z M 34.609375 1.078125 C 30.867188 1.078125 27.578125 0.320312 24.734375 -1.1875 C 21.898438 -2.695312 19.707031 -4.78125 18.15625 -7.4375 C 16.613281 -10.09375 15.84375 -13.078125 15.84375 -16.390625 C 15.84375 -19.765625 16.613281 -22.800781 18.15625 -25.5 C 19.707031 -28.195312 21.898438 -30.300781 24.734375 -31.8125 C 27.578125 -33.320312 30.867188 -34.078125 34.609375 -34.078125 C 40.210938 -34.078125 44.722656 -32.421875 48.140625 -29.109375 C 51.554688 -25.804688 53.265625 -21.601562 53.265625 -16.5 C 53.265625 -11.394531 51.554688 -7.1875 48.140625 -3.875 C 44.722656 -0.570312 40.210938 1.078125 34.609375 1.078125 Z M 34.609375 1.078125 "/></g></g></g></svg>